<?xml version="1.0" encoding="utf-8"?>
<!-- Generator: Adobe Illustrator 27.5.0, SVG Export Plug-In . SVG Version: 6.00 Build 0)  -->
<svg version="1.1" id="Layer_1" xmlns="http://www.w3.org/2000/svg" xmlns:xlink="http://www.w3.org/1999/xlink" x="0px" y="0px"
	 viewBox="0 0 1080 1080" style="enable-background:new 0 0 1080 1080;" xml:space="preserve">
<style type="text/css">
	.st0{fill:none;stroke:#56A6DC;stroke-width:44;stroke-miterlimit:10;}
	
		.st1{clip-path:url(#SVGID_00000111894726563232757710000004112007793376968347_);fill:#56A6DC;stroke:#56A6DC;stroke-width:6;stroke-miterlimit:10;}
	
		.st2{clip-path:url(#SVGID_00000108311350174160280350000012104405650373598353_);fill:#56A6DC;stroke:#56A6DC;stroke-width:6;stroke-miterlimit:10;}
</style>
<path class="st0" d="M198.34,252.01c99.73,79.12,318.05,187.79,446.48,191.72c55.99,1.71,113.49-4.74,163.64-29.09
	c50.16-24.35,92.16-68.65,103.23-122.27c11.06-53.62-14.29-115.08-64.94-138.43c-46.66-21.51-112.26-23.58-160.09-4.67
	c-34.97,13.83-67.62,37.19-87.22,73.04c-22.54,41.23-32.53,79-38.7,131.79c-15.02,128.58-13.13,258.59-9.96,387.97"/>
<g>
	<g id="_x3C_Mirror_Repeat_x3E__00000098923581546820631170000005501977632140237998_">
		<g>
			<defs>
				<rect id="SVGID_1_" x="360.99" y="729.42" width="195.31" height="242.13"/>
			</defs>
			<clipPath id="SVGID_00000105399259540372346030000018129445605168445075_">
				<use xlink:href="#SVGID_1_"  style="overflow:visible;"/>
			</clipPath>
			
				<polyline style="clip-path:url(#SVGID_00000105399259540372346030000018129445605168445075_);fill:#56A6DC;stroke:#56A6DC;stroke-width:6;stroke-miterlimit:10;" points="
				604.6,732.42 367.39,732.42 565.07,969.64 			"/>
		</g>
	</g>
	<g id="_x3C_Mirror_Repeat_x3E__00000029746657182031252570000004495970303099525266_">
		<g>
			<defs>
				<rect id="SVGID_00000000190863688915352990000003521061410415445902_" x="556.3" y="729.42" width="195.31" height="242.13"/>
			</defs>
			<clipPath id="SVGID_00000152971451891827129530000013404321610509360001_">
				<use xlink:href="#SVGID_00000000190863688915352990000003521061410415445902_"  style="overflow:visible;"/>
			</clipPath>
			
				<polyline style="clip-path:url(#SVGID_00000152971451891827129530000013404321610509360001_);fill:#56A6DC;stroke:#56A6DC;stroke-width:6;stroke-miterlimit:10;" points="
				507.99,732.42 745.21,732.42 547.53,969.64 			"/>
		</g>
	</g>
</g>
</svg>
